<svg width="57" height="15" viewBox="0 0 57 15" fill="none" xmlns="http://www.w3.org/2000/svg">
<path d="M23.145 1.31803C18.6521 0.999841 16.9579 3.18167 16.383 4.40895V11.2272C18.4525 11.3727 22.4794 11.2878 24.2342 11.0909V9.36357C22.7456 9.72721 19.6808 9.71206 18.3345 9.68176V4.6817C18.8427 3.15441 21.7533 2.8635 23.145 2.90895V1.31803Z" fill="#121212"/>
<path d="M25.641 0.136195H27.3202V5.40898C28.1824 4.95443 29.0447 5.03019 29.6347 4.95443V6.54536C28.3276 6.54536 27.5471 6.95445 27.3202 7.27264V14.8182H25.641V0.136195Z" fill="#121212"/>
<path d="M30.5876 2.72681V1.31771H37.1227V2.72681H34.8536C34.4179 4.87229 36.4268 6.46928 37.4858 6.99959L36.5781 8.31779C35.4163 8.13597 34.309 6.63595 33.9006 5.90867C33.6464 7.07232 31.9491 8.24203 31.1322 8.68143L30.2246 7.40868C32.6571 6.20867 33.1744 3.78743 33.1291 2.72681H30.5876Z" fill="#121212"/>
<path d="M39.7549 0.454059H38.0757V8.68143H39.7549V5.2723C40.2632 4.7632 40.9046 4.51471 41.1617 4.4541V9.04507H42.8863V0.181329H41.1617V2.99954C40.4356 3.13591 40.1179 3.40864 39.7549 3.68137V0.454059Z" fill="#121212"/>
<path d="M57 0.136195H55.2301V15H57V0.136195Z" fill="#121212"/>
<path d="M1.47832 2.7995V1.31227C4.20307 1.15188 10.07 0.664882 11.7396 0L13.0875 1.57472C11.9433 1.78117 10.1754 2.06813 8.30148 2.3147L8.28358 4.63642H13.6962V6.2728H8.27097L8.25415 8.45464H14.5223V10.091H8.24153L8.2142 13.6365C7.9419 14.7729 7.09649 14.8183 6.44429 14.8183H3.21752V13.2102H5.47849C6.34809 13.2102 6.58043 12.6365 6.58043 12.2729L6.60006 10.091H0V8.45464H6.61478L6.6344 6.2728H1.13048V4.63642H6.64912L6.6682 2.51483C4.69553 2.7372 2.76989 2.87778 1.47832 2.7995Z" fill="#121212"/>
<path fill-rule="evenodd" clip-rule="evenodd" d="M37.8552 9.40072C40.9578 9.41716 42.9277 10.4361 42.9443 12.1618C42.9277 13.8875 40.9578 14.9394 37.8552 14.9394C34.7195 14.9394 32.7661 13.8875 32.7661 12.1618C32.7661 10.4361 34.7195 9.41716 37.8552 9.40072ZM37.8552 10.7977C35.803 10.7977 34.5882 11.2908 34.5882 12.1618C34.5882 13.0658 35.803 13.526 37.8552 13.526C39.8908 13.526 41.1056 13.0658 41.1056 12.1618C41.1056 11.2908 39.8908 10.7977 37.8552 10.7977Z" fill="#121212"/>
<path fill-rule="evenodd" clip-rule="evenodd" d="M49.0512 1.18312C51.2839 1.18312 52.909 3.22109 52.9255 6.42595C52.909 9.66368 51.2839 11.6852 49.0512 11.6852C46.802 11.6852 45.1769 9.66368 45.1769 6.42595C45.1769 3.22109 46.802 1.18312 49.0512 1.18312ZM49.0512 2.82664C47.787 2.82664 46.9334 4.15789 46.9334 6.42595C46.9334 8.71044 47.787 10.0417 49.0512 10.0417C50.2989 10.0417 51.1525 8.71044 51.1525 6.42595C51.1525 4.15789 50.2989 2.82664 49.0512 2.82664Z" fill="#121212"/>
</svg>
