<svg width="153" height="135" viewBox="0 0 153 135" fill="none" xmlns="http://www.w3.org/2000/svg">
<g clip-path="url(#clip0_2760_1839)">
<path d="M43.5359 36.0962C35.7266 28.2388 35.7266 15.477 43.5359 7.61963C51.3453 -0.237793 63.9891 -0.237793 71.7984 7.61963L76.5 12.3657L81.2016 7.61963C89.0109 -0.237793 101.655 -0.237793 109.464 7.61963C117.273 15.477 117.273 28.2388 109.464 36.0962L82.4766 63.3071C80.8297 64.9683 78.6781 65.7856 76.5 65.7856C74.3219 65.7856 72.1703 64.9683 70.5234 63.3071L43.5359 36.0962ZM150.928 88.6724C154.408 93.3657 153.398 99.9575 148.67 103.412L115.042 128.012C108.827 132.547 101.336 135 93.6062 135H51H8.5C3.79844 135 0 131.229 0 126.562V109.687C0 105.02 3.79844 101.25 8.5 101.25H18.275L30.2016 91.7573C36.2313 86.9585 43.7219 84.3745 51.4516 84.3745H72.25H76.5H93.5C98.2016 84.3745 102 88.145 102 92.812C102 97.479 98.2016 101.25 93.5 101.25H76.5H72.25C69.9125 101.25 68 103.148 68 105.468C68 107.789 69.9125 109.687 72.25 109.687H104.284L136.08 86.4312C140.808 82.9771 147.448 83.979 150.928 88.6724ZM51.425 101.25H51.1859C51.2656 101.25 51.3453 101.25 51.425 101.25Z" fill="#4169E1"/>
</g>
<defs>
<clipPath id="clip0_2760_1839">
<rect width="153" height="135" fill="white"/>
</clipPath>
</defs>
</svg>
