<svg width="211" height="182" viewBox="0 0 211 182" fill="none" xmlns="http://www.w3.org/2000/svg">
<g filter="url(#filter0_d_3072_295)">
<path d="M198.058 92.8308C198.058 105.074 181.547 114.999 161.18 114.999C140.812 114.999 124.301 105.074 124.301 92.8308C124.301 80.5874 140.812 70.6621 161.18 70.6621C181.547 70.6621 198.058 80.5874 198.058 92.8308Z" fill="#2A49A2"/>
<path d="M206.048 114.999H161.794C165.072 112.331 171.751 106.871 172.243 106.378C172.735 105.886 187.668 103.094 194.225 102.684C194.225 109.088 201.541 114.178 206.048 114.999Z" fill="#2A49A2"/>
</g>
<g filter="url(#filter1_d_3072_295)">
<path d="M121.476 16.3545C117.853 12.6156 117.853 6.54305 121.476 2.80416C125.1 -0.934721 130.966 -0.934721 134.589 2.80416L136.771 5.06255L138.952 2.80416C142.576 -0.934721 148.442 -0.934721 152.065 2.80416C155.689 6.54305 155.689 12.6156 152.065 16.3545L139.544 29.3025C138.78 30.093 137.781 30.4819 136.771 30.4819C135.76 30.4819 134.762 30.093 133.998 29.3025L121.476 16.3545Z" fill="#8FA3FF"/>
</g>
<g filter="url(#filter2_d_3072_295)">
<path d="M37.0119 56.1149C34.3836 65.2119 29.3914 89.3679 29.3914 89.3679C29.3914 89.3679 117.142 89.8297 121.53 89.3679C125.918 88.9061 136.078 85.904 143.006 81.0546C143.006 81.0546 176.49 56.8077 179.03 54.0366C181.57 51.2655 185.126 44.1992 179.03 38.1028C175.797 34.8699 168.638 31.1751 159.632 38.1028L127.765 60.9643C127.765 60.9643 94.281 61.1952 93.1264 60.9643C92.6595 60.8709 92.0038 60.6492 91.3883 60.2715C91.3883 60.2715 55.7454 45.0237 37.0119 56.1149Z" fill="url(#paint0_linear_3072_295)"/>
<path d="M66.1083 56.8997L52.9456 36.8094C52.9456 36.8094 79.9637 14.9792 88.277 11.1768C96.5902 7.37446 102.363 11.8696 104.211 13.9479C108.644 18.3817 105.935 27.1263 103.518 29.5431C101.101 31.96 66.1083 56.8997 66.1083 56.8997Z" fill="url(#paint1_linear_3072_295)"/>
<path d="M86.8914 41.3202C80.6565 50.3263 87.8151 58.1777 92.4336 60.7179L33.548 85.6576L37.0119 56.1149C44.2167 41.151 57.1023 33.4932 67.5365 25.3865L86.8914 41.3202Z" fill="url(#paint2_linear_3072_295)"/>
<path d="M26.6203 90.0607H4.45166C4.45166 90.0607 9.99383 87.9824 23.1565 78.2836C28.6776 74.2153 34.5876 65.6027 34.9336 64.2172C41.5872 53.1328 50.1746 62.535 50.1746 67.1992C50.1746 72.0486 29.3914 89.3679 29.3914 89.3679L26.6203 90.0607Z" fill="url(#paint3_linear_3072_295)"/>
</g>
<path d="M35.6264 61.4399C33.2463 70.5406 4.45166 90.0604 4.45166 90.0604H109.108C109.996 90.0604 110.88 89.9431 111.731 89.6897C115.246 88.6425 125.1 85.4802 130.197 81.5384C130.197 81.5384 160.519 57.2816 162.819 54.5094C165.119 51.7372 168.34 44.668 162.819 38.5692C159.891 35.3349 153.409 31.6387 145.254 38.5692L116.396 61.4399C116.396 61.4399 86.0742 61.6709 85.0286 61.4399C84.6058 61.3465 84.0121 61.1246 83.4548 60.7469C83.4548 60.7469 52.5906 50.3442 35.6264 61.4399Z" fill="url(#paint4_linear_3072_295)"/>
<path d="M92.3574 148.251C81.2574 147.466 77.0716 152.848 75.6514 155.875V172.693C80.7641 173.052 90.713 172.843 95.0483 172.357V168.097C91.3707 168.993 83.7988 168.956 80.4726 168.881V156.548C81.7283 152.781 88.919 152.063 92.3574 152.175V148.251Z" fill="#4169E1"/>
<path d="M98.5241 145.336H102.673V158.342C104.803 157.221 106.933 157.408 108.391 157.221V161.145C105.162 161.145 103.233 162.154 102.673 162.939V181.551H98.5241V145.336Z" fill="#4169E1"/>
<path d="M110.745 151.726V148.25H126.891V151.726H121.284C120.208 157.018 125.171 160.957 127.788 162.265L125.545 165.517C122.675 165.068 119.939 161.368 118.93 159.575C118.302 162.445 114.109 165.33 112.091 166.414L109.848 163.275C115.858 160.315 117.136 154.342 117.024 151.726H110.745Z" fill="#4169E1"/>
<path d="M133.394 146.12H129.245V166.414H133.394V158.005C134.649 156.749 136.234 156.136 136.869 155.987V167.311H141.13V145.447H136.869V152.399C135.075 152.735 134.291 153.408 133.394 154.081V146.12Z" fill="#4169E1"/>
<path d="M175.999 145.336H171.626V182H175.999V145.336Z" fill="#4169E1"/>
<path d="M38.8281 151.905V148.237C45.5598 147.841 60.0546 146.64 64.1795 145L67.5096 148.884C64.6828 149.393 60.3149 150.101 55.6853 150.71L55.6411 156.436H69.0135V160.473H55.61L55.5684 165.855H71.0545V169.891H55.5372L55.4697 178.636C54.797 181.439 52.7083 181.551 51.097 181.551H43.125V177.585H48.7109C50.8593 177.585 51.4333 176.17 51.4333 175.273L51.4818 169.891H35.1758V165.855H51.5182L51.5667 160.473H37.9687V156.436H51.603L51.6502 151.203C46.7765 151.752 42.019 152.098 38.8281 151.905Z" fill="#4169E1"/>
<path fill-rule="evenodd" clip-rule="evenodd" d="M128.701 168.188C136.366 168.228 141.233 170.742 141.274 174.998C141.233 179.255 136.366 181.85 128.701 181.85C120.954 181.85 116.127 179.255 116.127 174.998C116.127 170.742 120.954 168.228 128.701 168.188ZM128.701 171.634C123.63 171.634 120.629 172.85 120.629 174.998C120.629 177.228 123.63 178.363 128.701 178.363C133.73 178.363 136.731 177.228 136.731 174.998C136.731 172.85 133.73 171.634 128.701 171.634ZM156.361 147.918C161.877 147.918 165.892 152.945 165.933 160.85C165.892 168.836 161.877 173.823 156.361 173.823C150.805 173.823 146.79 168.836 146.79 160.85C146.79 152.945 150.805 147.918 156.361 147.918ZM156.361 151.972C153.238 151.972 151.129 155.256 151.129 160.85C151.129 166.485 153.238 169.769 156.361 169.769C159.444 169.769 161.553 166.485 161.553 160.85C161.553 155.256 159.444 151.972 156.361 151.972Z" fill="#4169E1"/>
<defs>
<filter id="filter0_d_3072_295" x="120.301" y="70.6621" width="89.7471" height="52.3379" filterUnits="userSpaceOnUse" color-interpolation-filters="sRGB">
<feFlood flood-opacity="0" result="BackgroundImageFix"/>
<feColorMatrix in="SourceAlpha" type="matrix" values="0 0 0 0 0 0 0 0 0 0 0 0 0 0 0 0 0 0 127 0" result="hardAlpha"/>
<feOffset dy="4"/>
<feGaussianBlur stdDeviation="2"/>
<feComposite in2="hardAlpha" operator="out"/>
<feColorMatrix type="matrix" values="0 0 0 0 0 0 0 0 0 0 0 0 0 0 0 0 0 0 0.25 0"/>
<feBlend mode="normal" in2="BackgroundImageFix" result="effect1_dropShadow_3072_295"/>
<feBlend mode="normal" in="SourceGraphic" in2="effect1_dropShadow_3072_295" result="shape"/>
</filter>
<filter id="filter1_d_3072_295" x="114.759" y="0" width="44.0239" height="38.4824" filterUnits="userSpaceOnUse" color-interpolation-filters="sRGB">
<feFlood flood-opacity="0" result="BackgroundImageFix"/>
<feColorMatrix in="SourceAlpha" type="matrix" values="0 0 0 0 0 0 0 0 0 0 0 0 0 0 0 0 0 0 127 0" result="hardAlpha"/>
<feOffset dy="4"/>
<feGaussianBlur stdDeviation="2"/>
<feComposite in2="hardAlpha" operator="out"/>
<feColorMatrix type="matrix" values="0 0 0 0 0 0 0 0 0 0 0 0 0 0 0 0 0 0 0.25 0"/>
<feBlend mode="normal" in2="BackgroundImageFix" result="effect1_dropShadow_3072_295"/>
<feBlend mode="normal" in="SourceGraphic" in2="effect1_dropShadow_3072_295" result="shape"/>
</filter>
<filter id="filter2_d_3072_295" x="0.45166" y="9.69922" width="185.944" height="88.3613" filterUnits="userSpaceOnUse" color-interpolation-filters="sRGB">
<feFlood flood-opacity="0" result="BackgroundImageFix"/>
<feColorMatrix in="SourceAlpha" type="matrix" values="0 0 0 0 0 0 0 0 0 0 0 0 0 0 0 0 0 0 127 0" result="hardAlpha"/>
<feOffset dy="4"/>
<feGaussianBlur stdDeviation="2"/>
<feComposite in2="hardAlpha" operator="out"/>
<feColorMatrix type="matrix" values="0 0 0 0 0 0 0 0 0 0 0 0 0 0 0 0 0 0 0.25 0"/>
<feBlend mode="normal" in2="BackgroundImageFix" result="effect1_dropShadow_3072_295"/>
<feBlend mode="normal" in="SourceGraphic" in2="effect1_dropShadow_3072_295" result="shape"/>
</filter>
<linearGradient id="paint0_linear_3072_295" x1="142.313" y1="29.7896" x2="33.548" y2="103.223" gradientUnits="userSpaceOnUse">
<stop stop-color="#6188FF"/>
<stop offset="1" stop-color="#4269E1"/>
</linearGradient>
<linearGradient id="paint1_linear_3072_295" x1="142.313" y1="29.7896" x2="33.548" y2="103.223" gradientUnits="userSpaceOnUse">
<stop stop-color="#6188FF"/>
<stop offset="1" stop-color="#4269E1"/>
</linearGradient>
<linearGradient id="paint2_linear_3072_295" x1="142.313" y1="29.7896" x2="33.548" y2="103.223" gradientUnits="userSpaceOnUse">
<stop stop-color="#6188FF"/>
<stop offset="1" stop-color="#4269E1"/>
</linearGradient>
<linearGradient id="paint3_linear_3072_295" x1="142.313" y1="29.7896" x2="33.548" y2="103.223" gradientUnits="userSpaceOnUse">
<stop stop-color="#6188FF"/>
<stop offset="1" stop-color="#4269E1"/>
</linearGradient>
<linearGradient id="paint4_linear_3072_295" x1="129.57" y1="30.2523" x2="25.1726" y2="94.0543" gradientUnits="userSpaceOnUse">
<stop stop-color="#7899FF"/>
<stop offset="1" stop-color="#4269E1"/>
</linearGradient>
</defs>
</svg>
